<svg width="95" height="66" viewBox="0 0 95 66" fill="none" xmlns="http://www.w3.org/2000/svg">
<path d="M79.7021 1H86.8559M79.7021 1V8.11111M79.7021 1H72.5482M86.8559 1V8.11111M86.8559 1H94.0098V8.11111M86.8559 8.11111H79.7021M86.8559 8.11111H94.0098M86.8559 8.11111V15.2222M79.7021 8.11111V15.2222M79.7021 8.11111H72.5482M94.0098 8.11111V15.2222M86.8559 15.2222H79.7021M86.8559 15.2222V22.3333M86.8559 15.2222H94.0098M79.7021 15.2222V22.3333M79.7021 15.2222H72.5482M86.8559 22.3333H79.7021M86.8559 22.3333V29.4444M86.8559 22.3333H94.0098M79.7021 22.3333V29.4444M79.7021 22.3333H72.5482M86.8559 29.4444H79.7021M86.8559 29.4444V36.5556M86.8559 29.4444H94.0098M79.7021 29.4444V36.5556M79.7021 29.4444H72.5482M86.8559 36.5556H79.7021M86.8559 36.5556V43.6667M86.8559 36.5556H94.0098M79.7021 36.5556V43.6667M79.7021 36.5556H72.5482M86.8559 43.6667H79.7021M86.8559 43.6667V50.7778M86.8559 43.6667H94.0098M79.7021 43.6667V50.7778M79.7021 43.6667H72.5482M86.8559 50.7778H79.7021M86.8559 50.7778V57.8889M86.8559 50.7778H94.0098M79.7021 50.7778V57.8889M79.7021 50.7778H72.5482M86.8559 57.8889H79.7021M86.8559 57.8889V65M86.8559 57.8889H94.0098M79.7021 57.8889V65M79.7021 57.8889H72.5482M86.8559 65H79.7021M86.8559 65H94.0098V57.8889M79.7021 65H72.5482M94.0098 15.2222V22.3333M94.0098 22.3333V29.4444M94.0098 29.4444V36.5556M94.0098 36.5556V43.6667M94.0098 43.6667V50.7778M94.0098 50.7778V57.8889M8.16361 1H1.00977V8.11111M8.16361 1V8.11111M8.16361 1H15.3175M8.16361 8.11111H1.00977M8.16361 8.11111H15.3175M8.16361 8.11111V15.2222M1.00977 8.11111V15.2222M15.3175 1V8.11111M15.3175 1H22.4713M15.3175 8.11111H22.4713M15.3175 8.11111V15.2222M22.4713 1V8.11111M22.4713 1H29.6252M22.4713 8.11111H29.6252M22.4713 8.11111V15.2222M29.6252 1V8.11111M29.6252 1H36.779M29.6252 8.11111H36.779M29.6252 8.11111V15.2222M36.779 1V8.11111M36.779 1H43.9328M36.779 8.11111H43.9328M36.779 8.11111V15.2222M43.9328 1V8.11111M43.9328 1H51.0867M43.9328 8.11111H51.0867M43.9328 8.11111V15.2222M51.0867 1V8.11111M51.0867 1H58.2405M51.0867 8.11111H58.2405M51.0867 8.11111V15.2222M58.2405 1V8.11111M58.2405 1H65.3944M58.2405 8.11111H65.3944M58.2405 8.11111V15.2222M65.3944 1V8.11111M65.3944 1H72.5482M65.3944 8.11111H72.5482M65.3944 8.11111V15.2222M72.5482 1V8.11111M72.5482 8.11111V15.2222M8.16361 15.2222H1.00977M8.16361 15.2222V22.3333M8.16361 15.2222H15.3175M1.00977 15.2222V22.3333M8.16361 22.3333H1.00977M8.16361 22.3333V29.4444M8.16361 22.3333H15.3175M1.00977 22.3333V29.4444M8.16361 29.4444H1.00977M8.16361 29.4444V36.5556M8.16361 29.4444H15.3175M1.00977 29.4444V36.5556M8.16361 36.5556H1.00977M8.16361 36.5556V43.6667M8.16361 36.5556H15.3175M1.00977 36.5556V43.6667M8.16361 43.6667H1.00977M8.16361 43.6667V50.7778M8.16361 43.6667H15.3175M1.00977 43.6667V50.7778M8.16361 50.7778H1.00977M8.16361 50.7778V57.8889M8.16361 50.7778H15.3175M1.00977 50.7778V57.8889M8.16361 57.8889H1.00977M8.16361 57.8889V65M8.16361 57.8889H15.3175M1.00977 57.8889V65H8.16361M8.16361 65H15.3175M15.3175 15.2222V22.3333M15.3175 15.2222H22.4713M15.3175 22.3333V29.4444M15.3175 22.3333H22.4713M15.3175 29.4444V36.5556M15.3175 29.4444H22.4713M15.3175 36.5556V43.6667M15.3175 36.5556H22.4713M15.3175 43.6667V50.7778M15.3175 43.6667H22.4713M15.3175 50.7778V57.8889M15.3175 50.7778H22.4713M15.3175 57.8889V65M15.3175 57.8889H22.4713M15.3175 65H22.4713M22.4713 15.2222V22.3333M22.4713 15.2222H29.6252M22.4713 22.3333V29.4444M22.4713 22.3333H29.6252M22.4713 29.4444V36.5556M22.4713 29.4444H29.6252M22.4713 36.5556V43.6667M22.4713 36.5556H29.6252M22.4713 43.6667V50.7778M22.4713 43.6667H29.6252M22.4713 50.7778V57.8889M22.4713 50.7778H29.6252M22.4713 57.8889V65M22.4713 57.8889H29.6252M22.4713 65H29.6252M29.6252 15.2222V22.3333M29.6252 15.2222H36.779M29.6252 22.3333V29.4444M29.6252 22.3333H36.779M29.6252 29.4444V36.5556M29.6252 29.4444H36.779M29.6252 36.5556V43.6667M29.6252 36.5556H36.779M29.6252 43.6667V50.7778M29.6252 43.6667H36.779M29.6252 50.7778V57.8889M29.6252 50.7778H36.779M29.6252 57.8889V65M29.6252 57.8889H36.779M29.6252 65H36.779M36.779 15.2222V22.3333M36.779 15.2222H43.9328M36.779 22.3333V29.4444M36.779 22.3333H43.9328M36.779 29.4444V36.5556M36.779 29.4444H43.9328M36.779 36.5556V43.6667M36.779 36.5556H43.9328M36.779 43.6667V50.7778M36.779 43.6667H43.9328M36.779 50.7778V57.8889M36.779 50.7778H43.9328M36.779 57.8889V65M36.779 57.8889H43.9328M36.779 65H43.9328M43.9328 15.2222V22.3333M43.9328 15.2222H51.0867M43.9328 22.3333V29.4444M43.9328 22.3333H51.0867M43.9328 29.4444V36.5556M43.9328 29.4444H51.0867M43.9328 36.5556V43.6667M43.9328 36.5556H51.0867M43.9328 43.6667V50.7778M43.9328 43.6667H51.0867M43.9328 50.7778V57.8889M43.9328 50.7778H51.0867M43.9328 57.8889V65M43.9328 57.8889H51.0867M43.9328 65H51.0867M51.0867 15.2222V22.3333M51.0867 15.2222H58.2405M51.0867 22.3333V29.4444M51.0867 22.3333H58.2405M51.0867 29.4444V36.5556M51.0867 29.4444H58.2405M51.0867 36.5556V43.6667M51.0867 36.5556H58.2405M51.0867 43.6667V50.7778M51.0867 43.6667H58.2405M51.0867 50.7778V57.8889M51.0867 50.7778H58.2405M51.0867 57.8889V65M51.0867 57.8889H58.2405M51.0867 65H58.2405M58.2405 15.2222V22.3333M58.2405 15.2222H65.3944M58.2405 22.3333V29.4444M58.2405 22.3333H65.3944M58.2405 29.4444V36.5556M58.2405 29.4444H65.3944M58.2405 36.5556V43.6667M58.2405 36.5556H65.3944M58.2405 43.6667V50.7778M58.2405 43.6667H65.3944M58.2405 50.7778V57.8889M58.2405 50.7778H65.3944M58.2405 57.8889V65M58.2405 57.8889H65.3944M58.2405 65H65.3944M65.3944 15.2222V22.3333M65.3944 15.2222H72.5482M65.3944 22.3333V29.4444M65.3944 22.3333H72.5482M65.3944 29.4444V36.5556M65.3944 29.4444H72.5482M65.3944 36.5556V43.6667M65.3944 36.5556H72.5482M65.3944 43.6667V50.7778M65.3944 43.6667H72.5482M65.3944 50.7778V57.8889M65.3944 50.7778H72.5482M65.3944 57.8889V65M65.3944 57.8889H72.5482M65.3944 65H72.5482M72.5482 15.2222V22.3333M72.5482 22.3333V29.4444M72.5482 29.4444V36.5556M72.5482 36.5556V43.6667M72.5482 43.6667V50.7778M72.5482 50.7778V57.8889M72.5482 57.8889V65" stroke="url(#paint0_radial_7352_10422)" stroke-opacity="0.4" stroke-width="0.567901"/>
<g filter="url(#filter0_dd_7352_10422)">
<rect x="41.3105" y="8.49994" width="36.6025" height="36.6025" rx="8" transform="rotate(30 41.3105 8.49994)" fill="white"/>
<rect x="41.5115" y="9.25006" width="35.5042" height="35.5042" rx="7.45087" transform="rotate(30 41.5115 9.25006)" stroke="#D0D5DD" stroke-width="1.09826"/>
</g>
<g filter="url(#filter1_dd_7352_10422)">
<rect x="23.0098" y="19.2564" width="36.9231" height="36.9231" rx="8" fill="white" shape-rendering="crispEdges"/>
<rect x="23.5589" y="19.8055" width="35.8248" height="35.8248" rx="7.45087" stroke="#D0D5DD" stroke-width="1.09826" shape-rendering="crispEdges"/>
<mask id="mask0_7352_10422" style="mask-type:alpha" maskUnits="userSpaceOnUse" x="29" y="25" width="25" height="25">
<rect x="29.4717" y="25.718" width="24" height="24" fill="#D9D9D9"/>
</mask>
<g mask="url(#mask0_7352_10422)">
<path d="M38.4717 43.718H44.4717C44.755 43.718 44.9925 43.6221 45.1842 43.4305C45.3758 43.2388 45.4717 43.0013 45.4717 42.718C45.4717 42.4346 45.3758 42.1971 45.1842 42.0055C44.9925 41.8138 44.755 41.718 44.4717 41.718H38.4717C38.1883 41.718 37.9508 41.8138 37.7592 42.0055C37.5675 42.1971 37.4717 42.4346 37.4717 42.718C37.4717 43.0013 37.5675 43.2388 37.7592 43.4305C37.9508 43.6221 38.1883 43.718 38.4717 43.718ZM38.4717 39.718H44.4717C44.755 39.718 44.9925 39.6221 45.1842 39.4305C45.3758 39.2388 45.4717 39.0013 45.4717 38.718C45.4717 38.4346 45.3758 38.1971 45.1842 38.0055C44.9925 37.8138 44.755 37.718 44.4717 37.718H38.4717C38.1883 37.718 37.9508 37.8138 37.7592 38.0055C37.5675 38.1971 37.4717 38.4346 37.4717 38.718C37.4717 39.0013 37.5675 39.2388 37.7592 39.4305C37.9508 39.6221 38.1883 39.718 38.4717 39.718ZM35.4717 47.718C34.9217 47.718 34.4508 47.5221 34.0592 47.1305C33.6675 46.7388 33.4717 46.268 33.4717 45.718V29.718C33.4717 29.168 33.6675 28.6971 34.0592 28.3055C34.4508 27.9138 34.9217 27.718 35.4717 27.718H42.6467C42.9133 27.718 43.1675 27.768 43.4092 27.868C43.6508 27.968 43.8633 28.1096 44.0467 28.293L48.8967 33.143C49.08 33.3263 49.2217 33.5388 49.3217 33.7805C49.4217 34.0221 49.4717 34.2763 49.4717 34.543V45.718C49.4717 46.268 49.2758 46.7388 48.8842 47.1305C48.4925 47.5221 48.0217 47.718 47.4717 47.718H35.4717ZM42.4717 33.718V29.718H35.4717V45.718H47.4717V34.718H43.4717C43.1883 34.718 42.9508 34.6221 42.7592 34.4305C42.5675 34.2388 42.4717 34.0013 42.4717 33.718Z" fill="#667085"/>
</g>
</g>
<defs>
<filter id="filter0_dd_7352_10422" x="18.6167" y="6.30343" width="58.7851" height="58.7859" filterUnits="userSpaceOnUse" color-interpolation-filters="sRGB">
<feFlood flood-opacity="0" result="BackgroundImageFix"/>
<feColorMatrix in="SourceAlpha" type="matrix" values="0 0 0 0 0 0 0 0 0 0 0 0 0 0 0 0 0 0 127 0" result="hardAlpha"/>
<feMorphology radius="2.19651" operator="dilate" in="SourceAlpha" result="effect1_dropShadow_7352_10422"/>
<feOffset/>
<feComposite in2="hardAlpha" operator="out"/>
<feColorMatrix type="matrix" values="0 0 0 0 0.0696 0 0 0 0 0.215657 0 0 0 0 0.4104 0 0 0 0.08 0"/>
<feBlend mode="normal" in2="BackgroundImageFix" result="effect1_dropShadow_7352_10422"/>
<feColorMatrix in="SourceAlpha" type="matrix" values="0 0 0 0 0 0 0 0 0 0 0 0 0 0 0 0 0 0 127 0" result="hardAlpha"/>
<feOffset dy="2.19651"/>
<feGaussianBlur stdDeviation="2.19651"/>
<feComposite in2="hardAlpha" operator="out"/>
<feColorMatrix type="matrix" values="0 0 0 0 0.166412 0 0 0 0 0.230005 0 0 0 0 0.315941 0 0 0 0.12 0"/>
<feBlend mode="normal" in2="effect1_dropShadow_7352_10422" result="effect2_dropShadow_7352_10422"/>
<feBlend mode="normal" in="SourceGraphic" in2="effect2_dropShadow_7352_10422" result="shape"/>
</filter>
<filter id="filter1_dd_7352_10422" x="18.6167" y="17.0599" width="45.7089" height="45.7091" filterUnits="userSpaceOnUse" color-interpolation-filters="sRGB">
<feFlood flood-opacity="0" result="BackgroundImageFix"/>
<feColorMatrix in="SourceAlpha" type="matrix" values="0 0 0 0 0 0 0 0 0 0 0 0 0 0 0 0 0 0 127 0" result="hardAlpha"/>
<feMorphology radius="2.19651" operator="dilate" in="SourceAlpha" result="effect1_dropShadow_7352_10422"/>
<feOffset/>
<feComposite in2="hardAlpha" operator="out"/>
<feColorMatrix type="matrix" values="0 0 0 0 0.0696 0 0 0 0 0.215657 0 0 0 0 0.4104 0 0 0 0.08 0"/>
<feBlend mode="normal" in2="BackgroundImageFix" result="effect1_dropShadow_7352_10422"/>
<feColorMatrix in="SourceAlpha" type="matrix" values="0 0 0 0 0 0 0 0 0 0 0 0 0 0 0 0 0 0 127 0" result="hardAlpha"/>
<feOffset dy="2.19651"/>
<feGaussianBlur stdDeviation="2.19651"/>
<feComposite in2="hardAlpha" operator="out"/>
<feColorMatrix type="matrix" values="0 0 0 0 0.166412 0 0 0 0 0.230005 0 0 0 0 0.315941 0 0 0 0.12 0"/>
<feBlend mode="normal" in2="effect1_dropShadow_7352_10422" result="effect2_dropShadow_7352_10422"/>
<feBlend mode="normal" in="SourceGraphic" in2="effect2_dropShadow_7352_10422" result="shape"/>
</filter>
<radialGradient id="paint0_radial_7352_10422" cx="0" cy="0" r="1" gradientUnits="userSpaceOnUse" gradientTransform="translate(47.5098 33) rotate(90) scale(32 46.5)">
<stop stop-color="#0E031C"/>
<stop offset="1" stop-color="#0E031C" stop-opacity="0"/>
</radialGradient>
</defs>
</svg>
